<?xml version="1.0" encoding="utf-8"?>
<!-- Svg Vector Icons : http://www.onlinewebfonts.com/icon -->
<!DOCTYPE svg PUBLIC "-//W3C//DTD SVG 1.1//EN" "http://www.w3.org/Graphics/SVG/1.1/DTD/svg11.dtd">
<svg version="1.1" xmlns="http://www.w3.org/2000/svg" xmlns:xlink="http://www.w3.org/1999/xlink" x="0px" y="0px" viewBox="0 0 256 256" enable-background="new 0 0 256 256" xml:space="preserve">
<metadata> Svg Vector Icons : http://www.onlinewebfonts.com/icon </metadata>
<g><g><path fill="#000000" d="M236.2,221.9c-6.4,6.4-14.6,9.8-23.6,9.8H43.4c-18.4,0-33.4-15-33.4-33.4V95c0-9.1,3.4-17.2,9.8-23.6c6.4-6.4,14.6-9.8,23.6-9.8h25.5l6.6-16.4c5.2-13,17.1-21,31-21h43.2c13.9,0,25.8,8,31,21l6.5,16.3h25.5c18.4,0,33.4,15,33.4,33.4v103.3C246,207.4,242.6,215.5,236.2,221.9z M226.1,95c0-7.4-6-13.4-13.4-13.4h-39l-11.6-28.9c-2.1-5.3-6.8-8.5-12.5-8.5h-43.2c-5.7,0-10.4,3.2-12.5,8.4L82.4,81.6h-39c-3.8,0-6.8,1.3-9.5,4C31.2,88.2,30,91.2,30,95v103.3c0,7.4,6,13.4,13.4,13.4h169.2c3.8,0,6.8-1.3,9.5-3.9c2.7-2.7,3.9-5.7,3.9-9.5V95L226.1,95z M128,198.8c-31.3,0-56.8-25.5-56.8-56.8c0-31.3,25.5-56.8,56.8-56.8c31.3,0,56.8,25.5,56.8,56.8C184.9,173.3,159.4,198.8,128,198.8z M128,105.2c-20.3,0-36.9,16.5-36.9,36.8c0,20.3,16.5,36.8,36.9,36.8c20.4,0,36.9-16.5,36.9-36.8C164.9,121.7,148.4,105.2,128,105.2z"/></g></g>
</svg>